# xmcd
#
# Track frame offsets:
#	183
#	12505
#	22875
#	32320
#	45063
#	54000
#	66710
#	77865
#	88285
#	99373
#	110658
#	123513
#	136893
#	147303
#	161110
#	187113
#
# Disc length: 2761 seconds
#
# Revision: 5
# Processed by: cddbd v1.5.2PL0 Copyright (c) Steve Scherf et al.
# Submitted via: dBpowerAMP V4.0
#
DISCID=d40ac710
DTITLE=Various Artist - 16 Guitar Greats
DYEAR=1993
DGENRE=Pop
TTITLE0=Chuck Berry - No Particular Place to Go
TTITLE1=Duane Eddy - Rebel Rouser
TTITLE2=Link Wray and His Raymen - Batman Theme
TTITLE3=Carl Perkins - Put Your Cat Clothes On
TTITLE4=Billy Riley - Flying Saucers Rock 'n' Roll
TTITLE5=Bo Diddley - Mumblin' Guitar
TTITLE6=Ronnie Mack - Memphis
TTITLE7=Yardbirds (featuring Eric Clapton) - Let it Rock
TTITLE8=Johnny Winter - Gangster of Love
TTITLE9=B.B. King - Tickle Britches
TTITLE10=T- Bone Walker - Stormy Monday Blues
TTITLE11=Elmore James - Dust my Broom
TTITLE12=Buddy Guy - First Time I Met The Blues
TTITLE13=Yardbirds (featuring Jeff Beck) - Jeff's Blues
TTITLE14=John Mayall's Blues Breakers - Ridin' on the L. and N.
TTITLE15=Jan Akkerman - Journey  (a Real Elegant Gypsy)
EXTD=
EXTT0=
EXTT1=
EXTT2=
EXTT3=
EXTT4=
EXTT5=
EXTT6=
EXTT7=
EXTT8=
EXTT9=
EXTT10=
EXTT11=
EXTT12=
EXTT13=
EXTT14=
EXTT15=
PLAYORDER=
